<svg width="85" height="21" viewBox="0 0 85 21" fill="none" xmlns="http://www.w3.org/2000/svg">
<path d="M5.30505 17.2046C4.28601 17.2046 3.29693 17.0574 2.33782 16.7629C1.37871 16.4685 0.599441 16.0758 0 15.5851L1.16891 12.5143C1.73239 12.949 2.38578 13.2996 3.12908 13.566C3.87239 13.8324 4.60371 13.9656 5.32304 13.9656C6.68977 13.9656 7.37313 13.566 7.37313 12.7667C7.37313 12.3461 7.17531 12.0376 6.77968 11.8413C6.39604 11.631 5.77262 11.4136 4.90942 11.1893C3.96231 10.9509 3.17105 10.6985 2.53564 10.4321C1.90023 10.1517 1.35474 9.71001 0.899163 9.10708C0.443588 8.50414 0.215802 7.69089 0.215802 6.6673C0.215802 5.76992 0.425604 4.96367 0.845213 4.24857C1.26482 3.51944 1.88824 2.94455 2.71547 2.5239C3.55469 2.10325 4.57973 1.89293 5.7906 1.89293C6.61783 1.89293 7.43307 2.0051 8.23632 2.22945C9.03957 2.43977 9.74691 2.75526 10.3583 3.17591L9.26136 6.26769C8.06248 5.51052 6.89957 5.13193 5.77262 5.13193C5.06528 5.13193 4.54976 5.25813 4.22606 5.51052C3.90236 5.74888 3.74052 6.06437 3.74052 6.45698C3.74052 6.84959 3.93234 7.14404 4.31598 7.34034C4.69962 7.53665 5.31704 7.73996 6.16825 7.95029C7.12735 8.18866 7.91862 8.44806 8.54204 8.72849C9.17745 8.9949 9.72294 9.42957 10.1785 10.0325C10.6461 10.6214 10.8799 11.4277 10.8799 12.4512C10.8799 13.3346 10.6701 14.1338 10.2504 14.8489C9.83084 15.5641 9.20142 16.1389 8.36221 16.5736C7.52299 16.9943 6.50394 17.2046 5.30505 17.2046ZM18.495 5.32122C19.3822 5.32122 20.1854 5.5666 20.9048 6.05736C21.6361 6.5341 22.2115 7.22116 22.6311 8.11855C23.0627 9.00191 23.2785 10.0325 23.2785 11.2103C23.2785 12.3881 23.0627 13.4257 22.6311 14.3231C22.2115 15.2065 21.6361 15.8936 20.9048 16.3843C20.1854 16.8611 19.3822 17.0994 18.495 17.0994C17.3561 17.0994 16.4509 16.6998 15.7795 15.9006V20.9904H12.3627V5.51052H15.6177V6.64627C16.2531 5.76291 17.2122 5.32122 18.495 5.32122ZM17.7757 13.9235C18.3751 13.9235 18.8667 13.6852 19.2503 13.2084C19.6339 12.7177 19.8258 12.0516 19.8258 11.2103C19.8258 10.369 19.6339 9.71001 19.2503 9.23327C18.8667 8.74251 18.3751 8.49713 17.7757 8.49713C17.1762 8.49713 16.6847 8.74251 16.3011 9.23327C15.9174 9.71001 15.7256 10.369 15.7256 11.2103C15.7256 12.0516 15.9174 12.7177 16.3011 13.2084C16.6847 13.6852 17.1762 13.9235 17.7757 13.9235ZM28.8101 5.32122C30.4286 5.32122 31.6635 5.7559 32.5147 6.62524C33.3659 7.48056 33.7915 8.7986 33.7915 10.5794V16.9101H30.6085V15.4379C30.1169 16.5456 29.1578 17.0994 27.7311 17.0994C26.9759 17.0994 26.3225 16.9452 25.771 16.6367C25.2195 16.3282 24.7999 15.9146 24.5121 15.3958C24.2364 14.863 24.0985 14.26 24.0985 13.587C24.0985 12.5073 24.4522 11.673 25.1595 11.0841C25.8669 10.4812 26.9579 10.1797 28.4325 10.1797H30.3747C30.3147 8.97387 29.6254 8.37094 28.3066 8.37094C27.839 8.37094 27.3655 8.46208 26.8859 8.64436C26.4064 8.81262 25.9988 9.05099 25.6631 9.35947L24.5121 6.64627C25.0516 6.22562 25.705 5.90312 26.4723 5.67878C27.2516 5.44041 28.0309 5.32122 28.8101 5.32122ZM28.6843 14.5755C29.0799 14.5755 29.4276 14.4634 29.7273 14.239C30.027 14.0147 30.2428 13.6852 30.3747 13.2505V12.262H28.9001C27.905 12.262 27.4074 12.6475 27.4074 13.4187C27.4074 13.7693 27.5213 14.0497 27.7491 14.26C27.9769 14.4704 28.2886 14.5755 28.6843 14.5755ZM41.07 17.0994C39.991 17.0994 39.0259 16.847 38.1747 16.3423C37.3234 15.8375 36.6581 15.1364 36.1785 14.239C35.711 13.3416 35.4772 12.325 35.4772 11.1893C35.4772 10.0535 35.711 9.04398 36.1785 8.16061C36.6581 7.26322 37.3234 6.56915 38.1747 6.07839C39.0259 5.57361 39.991 5.32122 41.07 5.32122C42.1729 5.32122 43.126 5.60166 43.9293 6.16252C44.7325 6.70937 45.302 7.47355 45.6377 8.45507L42.9942 10.0325C42.5506 9.00892 41.9032 8.49713 41.052 8.49713C40.4405 8.49713 39.931 8.7355 39.5234 9.21224C39.1278 9.68898 38.93 10.348 38.93 11.1893C38.93 12.0446 39.1278 12.7177 39.5234 13.2084C39.931 13.6852 40.4405 13.9235 41.052 13.9235C41.9032 13.9235 42.5506 13.4117 42.9942 12.3881L45.6377 13.9656C45.302 14.9471 44.7325 15.7183 43.9293 16.2792C43.126 16.826 42.1729 17.0994 41.07 17.0994ZM56.7816 11.2314C56.7816 11.2594 56.7636 11.5889 56.7276 12.2199H49.6422C49.7861 12.8088 50.0618 13.2645 50.4694 13.587C50.8891 13.8955 51.4106 14.0497 52.034 14.0497C52.5015 14.0497 52.9032 13.9726 53.2389 13.8184C53.5865 13.6641 53.9342 13.4117 54.2819 13.0612L56.0802 15.2486C55.1331 16.4825 53.7484 17.0994 51.9261 17.0994C50.7871 17.0994 49.7861 16.847 48.9229 16.3423C48.0597 15.8375 47.3883 15.1364 46.9088 14.239C46.4412 13.3416 46.2074 12.325 46.2074 11.1893C46.2074 10.0676 46.4352 9.06501 46.8908 8.18165C47.3583 7.28426 47.9997 6.58317 48.815 6.07839C49.6302 5.57361 50.5474 5.32122 51.5664 5.32122C52.5375 5.32122 53.4187 5.55959 54.2099 6.03633C55.0012 6.49904 55.6246 7.1791 56.0802 8.07648C56.5478 8.95985 56.7816 10.0115 56.7816 11.2314ZM51.5844 8.16061C51.0569 8.16061 50.6133 8.33588 50.2536 8.68643C49.906 9.03697 49.6842 9.5137 49.5883 10.1166H53.5805C53.4846 9.5137 53.2568 9.03697 52.8972 8.68643C52.5495 8.33588 52.1119 8.16061 51.5844 8.16061ZM62.0796 5.40535V8.64436H67.6364V11.8623H62.0796V16.9101H58.5189V2.18738H68.3917V5.40535H62.0796ZM69.7195 5.51052H73.1363V16.9101H69.7195V5.51052ZM71.4279 4.24857C70.8045 4.24857 70.3009 4.04525 69.9173 3.63862C69.5337 3.232 69.3418 2.72721 69.3418 2.12428C69.3418 1.52135 69.5337 1.01657 69.9173 0.609943C70.3009 0.203315 70.8045 0 71.4279 0C72.0513 0 72.5548 0.196303 72.9385 0.58891C73.3221 0.967495 73.514 1.45825 73.514 2.06119C73.514 2.69216 73.3221 3.21797 72.9385 3.63862C72.5548 4.04525 72.0513 4.24857 71.4279 4.24857ZM75.3567 1.30402H78.7736V16.9101H75.3567V1.30402ZM80.994 1.30402H84.4108V16.9101H80.994V1.30402Z" fill="white"/>
</svg>
