<svg id="Calque_1" data-name="Calque 1" xmlns="http://www.w3.org/2000/svg" viewBox="0 0 400 400"><defs><style>.cls-1{fill:#fff;}</style></defs><title>Plan de travail 1</title><path class="cls-1" d="M400,400H0V0H400Zm-31.63-15.52A11.63,11.63,0,0,0,380,372.85V211.63A11.63,11.63,0,0,0,368.37,200H31.63A11.63,11.63,0,0,0,20,211.63V372.85a11.63,11.63,0,0,0,11.63,11.63Zm-73-185.36V44.79a15.68,15.68,0,0,0-15.67-15.67H121.06A15.67,15.67,0,0,0,105.4,44.79V199.12Z"/><path class="cls-1" d="M275.4,60.11v139h-150v-139a11,11,0,0,1,11-11h128A11,11,0,0,1,275.4,60.11ZM252.15,172.17v-4.84a7.8,7.8,0,0,0-7.8-7.79h-88.7a7.8,7.8,0,0,0-7.8,7.79v4.84a7.8,7.8,0,0,0,7.8,7.8h88.7A7.8,7.8,0,0,0,252.15,172.17Z"/><path class="cls-1" d="M353.55,364.48H46.45A6.44,6.44,0,0,1,40,358V226.45A6.45,6.45,0,0,1,46.45,220h307.1a6.45,6.45,0,0,1,6.45,6.45V358A6.44,6.44,0,0,1,353.55,364.48ZM210,220H190V364.48h20ZM167.54,335.43v-4.84a7.8,7.8,0,0,0-7.8-7.79H71a7.79,7.79,0,0,0-7.79,7.79v4.84a7.8,7.8,0,0,0,7.79,7.8h88.71A7.8,7.8,0,0,0,167.54,335.43ZM339,335.21v-4.83a7.8,7.8,0,0,0-7.8-7.8H242.47a7.8,7.8,0,0,0-7.79,7.8v4.83a7.8,7.8,0,0,0,7.79,7.8h88.71A7.8,7.8,0,0,0,339,335.21Z"/></svg>